<svg width="40" height="40" viewBox="0 0 50 50">
    <path d="M50.417,50.417L41.250,41.250L18.333,41.250C17.073,41.250,15.994,40.801,15.096,39.904C14.199,39.006,13.750,37.927,13.750,36.667L13.750,34.375L38.958,34.375C40.219,34.375,41.298,33.926,42.195,33.029C43.093,32.131,43.542,31.052,43.542,29.792L43.542,13.750L45.833,13.750C47.094,13.750,48.173,14.199,49.070,15.096C49.968,15.994,50.417,17.073,50.417,18.333L50.417,50.417ZZM9.167,27.901L11.859,25.208L34.375,25.208L34.375,9.167L9.167,9.167L9.167,27.901ZZM4.583,38.958L4.583,9.167C4.583,7.906,5.032,6.827,5.930,5.930C6.827,5.032,7.906,4.583,9.167,4.583L34.375,4.583C35.635,4.583,36.714,5.032,37.612,5.930C38.510,6.827,38.958,7.906,38.958,9.167L38.958,25.208C38.958,26.469,38.510,27.548,37.612,28.445C36.714,29.343,35.635,29.792,34.375,29.792L13.750,29.792L4.583,38.958ZZM9.167,25.208L9.167,9.167L9.167,25.208ZZ" style="fill: rgb(232, 234, 237);" class="fills"/>
</svg>
