<svg width="40" height="40" viewBox="0 0 50 50">
    <path d="M27.500,32.083C28.760,32.083,29.839,31.635,30.737,30.737C31.635,29.839,32.083,28.760,32.083,27.500C32.083,26.240,31.635,25.161,30.737,24.263C29.839,23.365,28.760,22.917,27.500,22.917C26.240,22.917,25.161,23.365,24.263,24.263C23.365,25.161,22.917,26.240,22.917,27.500C22.917,28.760,23.365,29.839,24.263,30.737C25.161,31.635,26.240,32.083,27.500,32.083ZZM18.333,41.250L36.667,41.250L36.667,39.932C36.667,39.016,36.418,38.175,35.922,37.411C35.425,36.648,34.738,36.075,33.859,35.693C32.866,35.273,31.845,34.948,30.794,34.719C29.744,34.490,28.646,34.375,27.500,34.375C26.354,34.375,25.256,34.490,24.206,34.719C23.155,34.948,22.134,35.273,21.141,35.693C20.262,36.075,19.575,36.648,19.078,37.411C18.582,38.175,18.333,39.016,18.333,39.932L18.333,41.250ZZM41.250,50.417L13.750,50.417C12.490,50.417,11.411,49.968,10.513,49.070C9.615,48.173,9.167,47.094,9.167,45.833L9.167,9.167C9.167,7.906,9.615,6.827,10.513,5.930C11.411,5.032,12.490,4.583,13.750,4.583L32.083,4.583L45.833,18.333L45.833,45.833C45.833,47.094,45.385,48.173,44.487,49.070C43.589,49.968,42.510,50.417,41.250,50.417ZZM41.250,45.833L41.250,20.281L30.135,9.167L13.750,9.167L13.750,45.833L41.250,45.833ZZM13.750,45.833L13.750,9.167L13.750,45.833ZZ" style="fill: rgb(232, 234, 237);" class="fills"/>
</svg>
