<svg width="300" viewBox="10 0 360 300" fill="white">
    <path d="M64.570,269.500C55.691,269.500,48.091,266.987,41.768,261.960C35.446,256.934,32.285,250.892,32.285,243.833L32.285,102.667C32.285,95.608,35.446,89.566,41.768,84.540C48.091,79.513,55.691,77.000,64.570,77.000L129.139,77.000L129.139,51.333C129.139,44.275,132.300,38.233,138.623,33.206C144.945,28.180,152.546,25.667,161.424,25.667L225.993,25.667C234.872,25.667,242.472,28.180,248.794,33.206C255.117,38.233,258.278,44.275,258.278,51.333L258.278,77.000L322.848,77.000C331.726,77.000,339.326,79.513,345.649,84.540C351.971,89.566,355.132,95.608,355.132,102.667L355.132,243.833C355.132,250.892,351.971,256.934,345.649,261.960C339.326,266.987,331.726,269.500,322.848,269.500L64.570,269.500ZZM161.424,77.000L225.993,77.000L225.993,51.333L161.424,51.333L161.424,77.000ZZM96.854,102.667L64.570,102.667L64.570,243.833L96.854,243.833L96.854,102.667ZZM258.278,243.833L258.278,102.667L129.139,102.667L129.139,243.833L258.278,243.833ZZM290.563,102.667L290.563,243.833L322.848,243.833L322.848,102.667L290.563,102.667ZZM193.709,173.250Z" />
</svg>
