<svg width="40" height="40" viewBox="0 0 50 50">
    <path d="M4.167,43.750L4.167,39.583L22.917,39.583L22.917,16.302C22.014,15.990,21.233,15.503,20.573,14.844C19.913,14.184,19.427,13.403,19.115,12.500L12.500,12.500L18.750,27.083C18.750,28.819,18.038,30.295,16.615,31.510C15.191,32.726,13.472,33.333,11.458,33.333C9.444,33.333,7.726,32.726,6.302,31.510C4.878,30.295,4.167,28.819,4.167,27.083L10.417,12.500L6.250,12.500L6.250,8.333L19.115,8.333C19.531,7.118,20.278,6.120,21.354,5.339C22.431,4.557,23.646,4.167,25.000,4.167C26.354,4.167,27.569,4.557,28.646,5.339C29.722,6.120,30.469,7.118,30.885,8.333L43.750,8.333L43.750,12.500L39.583,12.500L45.833,27.083C45.833,28.819,45.122,30.295,43.698,31.510C42.274,32.726,40.556,33.333,38.542,33.333C36.528,33.333,34.809,32.726,33.385,31.510C31.962,30.295,31.250,28.819,31.250,27.083L37.500,12.500L30.885,12.500C30.573,13.403,30.087,14.184,29.427,14.844C28.767,15.503,27.986,15.990,27.083,16.302L27.083,39.583L45.833,39.583L45.833,43.750L4.167,43.750ZZM34.635,27.083L42.448,27.083L38.542,18.021L34.635,27.083ZZM7.552,27.083L15.365,27.083L11.458,18.021L7.552,27.083ZZM25.000,12.500C25.590,12.500,26.085,12.300,26.484,11.901C26.884,11.502,27.083,11.007,27.083,10.417C27.083,9.826,26.884,9.332,26.484,8.932C26.085,8.533,25.590,8.333,25.000,8.333C24.410,8.333,23.915,8.533,23.516,8.932C23.116,9.332,22.917,9.826,22.917,10.417C22.917,11.007,23.116,11.502,23.516,11.901C23.915,12.300,24.410,12.500,25.000,12.500ZZ" style="fill: rgb(232, 234, 237);" class="fills"/>
</svg>